<svg width="16" height="16" viewBox="0 0 16 16" fill="none" xmlns="http://www.w3.org/2000/svg">
<path d="M9.15385 2.33977L10.3272 4.68643C10.4872 5.0131 10.9138 5.32643 11.2738 5.38643L13.4005 5.73977C14.7605 5.96643 15.0805 6.9531 14.1005 7.92643L12.4472 9.57977C12.1672 9.85977 12.0138 10.3998 12.1005 10.7864L12.5738 12.8331C12.9472 14.4531 12.0872 15.0798 10.6538 14.2331L8.66051 13.0531C8.30051 12.8398 7.70718 12.8398 7.34051 13.0531L5.34718 14.2331C3.92051 15.0798 3.05385 14.4464 3.42718 12.8331L3.90051 10.7864C3.98718 10.3998 3.83385 9.85977 3.55385 9.57977L1.90051 7.92643C0.927178 6.9531 1.24051 5.96643 2.60051 5.73977L4.72718 5.38643C5.08051 5.32643 5.50718 5.0131 5.66718 4.68643L6.84051 2.33977C7.48051 1.06643 8.52051 1.06643 9.15385 2.33977Z" fill="#F2AC0D"/>
</svg>
